<?xml version="1.0" standalone="no"?>
<!DOCTYPE svg PUBLIC "-//W3C//DTD SVG 20010904//EN"
 "http://www.w3.org/TR/2001/REC-SVG-20010904/DTD/svg10.dtd">
<svg version="1.0" xmlns="http://www.w3.org/2000/svg"
 width="32.000000pt" height="32.000000pt" viewBox="0 0 32.000000 32.000000"
 preserveAspectRatio="xMidYMid meet">

<g transform="translate(0.000000,32.000000) scale(0.100000,-0.100000)"
fill="#000000" stroke="none">
<path d="M12 308 c-17 -17 -17 -279 0 -296 17 -17 279 -17 296 0 17 17 17 279
0 296 -17 17 -279 17 -296 0z m108 -103 c16 -19 5 -34 -12 -17 -7 7 -20 12
-31 12 -15 0 -18 -6 -15 -37 2 -31 7 -39 26 -41 26 -4 28 6 5 24 -16 12 -15
13 10 14 25 0 28 -3 25 -27 -2 -22 -9 -29 -31 -31 -16 -2 -35 2 -43 9 -17 14
-19 80 -2 97 17 17 53 15 68 -3z m50 -45 c0 -33 -4 -60 -10 -60 -6 0 -10 27
-10 60 0 33 4 60 10 60 6 0 10 -27 10 -60z m107 45 c7 -20 -6 -33 -16 -16 -5
7 -17 11 -27 9 -14 -2 -19 -12 -19 -38 0 -29 4 -36 23 -38 12 -2 22 1 22 7 0
6 5 11 10 11 16 0 11 -27 -6 -34 -44 -17 -74 5 -74 54 0 38 19 60 51 60 17 0
32 -6 36 -15z"/>
</g>
</svg>
